<svg width="180" height="40" viewBox="0 0 180 40" fill="none" xmlns="http://www.w3.org/2000/svg">
<path d="M1.91211 32.1432V8.24707H16.4782V12.4126H6.56339V18.1065H15.5115V22.272H6.56339V32.1432H1.91211Z" fill="white"/>
<path d="M43.7674 21.782V32.1432H39.1913V14.2211H43.5525V17.3831H43.7459C44.1111 16.3408 44.7234 15.5162 45.5827 14.9095C46.4421 14.295 47.4841 13.9877 48.7087 13.9877C49.8545 13.9877 50.8535 14.26 51.7057 14.8045C52.5579 15.349 53.2203 16.1269 53.6929 17.1381C54.1656 18.1415 54.4019 19.3395 54.4019 20.7318V32.1432H49.8258V21.6186C49.833 20.5218 49.5752 19.6662 49.0524 19.0517C48.5296 18.4294 47.8099 18.1182 46.8933 18.1182C46.2774 18.1182 45.7331 18.2621 45.2605 18.5499C44.795 18.8377 44.4298 19.2578 44.1648 19.8101C43.907 20.3546 43.7745 21.0119 43.7674 21.782Z" fill="white"/>
<path d="M64.0885 32.4349C62.8353 32.4349 61.7002 32.0848 60.6833 31.3848C59.6735 30.6769 58.8715 29.6384 58.2771 28.2694C57.6899 26.8926 57.3962 25.2046 57.3962 23.2055C57.3962 21.1519 57.7006 19.4445 58.3093 18.0832C58.918 16.7142 59.7273 15.6913 60.737 15.0145C61.7539 14.33 62.8675 13.9877 64.0778 13.9877C65.0016 13.9877 65.7714 14.1589 66.3873 14.5011C67.0103 14.8356 67.5116 15.2557 67.8912 15.7613C68.2779 16.2591 68.5715 16.7492 68.772 17.2314H68.9117V8.24707H73.477V32.1432H68.9654V29.2728H68.772C68.5572 29.7707 68.2528 30.2646 67.8589 30.7547C67.4722 31.237 66.9674 31.6376 66.3443 31.9565C65.7284 32.2754 64.9765 32.4349 64.0885 32.4349ZM65.5387 28.4794C66.2763 28.4794 66.8993 28.2616 67.4078 27.826C67.9234 27.3826 68.3173 26.7642 68.5894 25.9708C68.8687 25.1774 69.0083 24.2478 69.0083 23.1821C69.0083 22.1165 68.8723 21.1908 68.6001 20.4051C68.328 19.6195 67.9341 19.0128 67.4185 18.5849C66.9029 18.1571 66.2763 17.9432 65.5387 17.9432C64.7867 17.9432 64.153 18.1649 63.6373 18.6083C63.1217 19.0517 62.7314 19.6662 62.4665 20.4518C62.2015 21.2375 62.069 22.1476 62.069 23.1821C62.069 24.2245 62.2015 25.1462 62.4665 25.9475C62.7386 26.7409 63.1289 27.3632 63.6373 27.8143C64.153 28.2577 64.7867 28.4794 65.5387 28.4794Z" fill="white"/>
<path d="M84.7588 32.4932C83.0615 32.4932 81.6006 32.1198 80.376 31.3731C79.1586 30.6186 78.2205 29.5529 77.5616 28.176C76.9028 26.7914 76.5734 25.154 76.5734 23.2638C76.5734 21.4203 76.9028 19.8023 77.5616 18.4099C78.2205 17.0175 79.1479 15.9324 80.3438 15.1545C81.5469 14.3767 82.9577 13.9877 84.5762 13.9877C85.6647 13.9877 86.678 14.1783 87.6161 14.5595C88.5614 14.9328 89.385 15.4968 90.0868 16.2513C90.7958 17.0059 91.3472 17.9549 91.7411 19.0983C92.1349 20.234 92.3319 21.5642 92.3319 23.0888V24.4539H78.3995V21.3736H88.0243C88.0243 20.658 87.8811 20.024 87.5947 19.4717C87.3082 18.9194 86.9108 18.4877 86.4023 18.1766C85.901 17.8576 85.3174 17.6982 84.6513 17.6982C83.9567 17.6982 83.3408 17.8732 82.8037 18.2232C82.2738 18.5655 81.8584 19.0283 81.5577 19.6117C81.2569 20.1873 81.1029 20.8291 81.0957 21.5369V24.4656C81.0957 25.3524 81.2461 26.1186 81.5469 26.7642C81.8549 27.4098 82.2881 27.9077 82.8467 28.2577C83.4053 28.6078 84.0677 28.7828 84.834 28.7828C85.3424 28.7828 85.8079 28.705 86.2304 28.5494C86.6529 28.3938 87.0146 28.1605 87.3154 27.8493C87.6161 27.5382 87.8453 27.157 88.0029 26.7059L92.2352 27.0092C92.0204 28.1138 91.5799 29.0784 90.9139 29.9029C90.2551 30.7197 89.4029 31.3575 88.3573 31.8165C87.3189 32.2676 86.1194 32.4932 84.7588 32.4932Z" fill="white"/>
<path d="M101.398 32.4349C100.145 32.4349 99.0098 32.0848 97.9929 31.3848C96.9832 30.6769 96.1811 29.6384 95.5867 28.2694C94.9995 26.8926 94.7058 25.2046 94.7058 23.2055C94.7058 21.1519 95.0102 19.4445 95.6189 18.0832C96.2276 16.7142 97.0369 15.6913 98.0466 15.0145C99.0635 14.33 100.177 13.9877 101.387 13.9877C102.311 13.9877 103.081 14.1589 103.697 14.5011C104.32 14.8356 104.821 15.2557 105.201 15.7613C105.587 16.2591 105.881 16.7492 106.082 17.2314H106.221V8.24707H110.787V32.1432H106.275V29.2728H106.082C105.867 29.7707 105.562 30.2646 105.169 30.7547C104.782 31.237 104.277 31.6376 103.654 31.9565C103.038 32.2754 102.286 32.4349 101.398 32.4349ZM102.848 28.4794C103.586 28.4794 104.209 28.2616 104.717 27.826C105.233 27.3826 105.627 26.7642 105.899 25.9708C106.178 25.1774 106.318 24.2478 106.318 23.1821C106.318 22.1165 106.182 21.1908 105.91 20.4051C105.638 19.6195 105.244 19.0128 104.728 18.5849C104.213 18.1571 103.586 17.9432 102.848 17.9432C102.096 17.9432 101.463 18.1649 100.947 18.6083C100.431 19.0517 100.041 19.6662 99.7761 20.4518C99.5111 21.2375 99.3786 22.1476 99.3786 23.1821C99.3786 24.2245 99.5111 25.1462 99.7761 25.9475C100.048 26.7409 100.438 27.3632 100.947 27.8143C101.463 28.2577 102.096 28.4794 102.848 28.4794Z" fill="white"/>
<path d="M125.13 24.5123V14.2211H129.706V32.1432H125.312V28.8878H125.141C124.768 29.9379 124.149 30.7819 123.282 31.4198C122.423 32.0576 121.374 32.3765 120.135 32.3765C119.032 32.3765 118.062 32.1043 117.224 31.5598C116.386 31.0153 115.731 30.2413 115.258 29.2378C114.792 28.2344 114.556 27.0326 114.549 25.6324V14.2211H119.125V24.7456C119.132 25.8035 119.394 26.6398 119.909 27.2543C120.425 27.8688 121.116 28.176 121.982 28.176C122.534 28.176 123.049 28.0399 123.529 27.7677C124.009 27.4876 124.396 27.0754 124.689 26.5309C124.99 25.9863 125.137 25.3135 125.13 24.5123Z" fill="white"/>
<path d="M136.041 32.4465C135.332 32.4465 134.723 32.1743 134.215 31.6298C133.714 31.0775 133.463 30.4163 133.463 29.6462C133.463 28.8839 133.714 28.2305 134.215 27.686C134.723 27.1415 135.332 26.8692 136.041 26.8692C136.729 26.8692 137.33 27.1415 137.846 27.686C138.361 28.2305 138.619 28.8839 138.619 29.6462C138.619 30.1596 138.497 30.6302 138.254 31.058C138.018 31.4781 137.706 31.8165 137.319 32.0732C136.933 32.3221 136.507 32.4465 136.041 32.4465Z" fill="white"/>
<!-- <path d="M152.957 24.5123V14.2211H157.533V32.1432H153.14V28.8878H152.968C152.595 29.9379 151.976 30.7819 151.109 31.4198C150.25 32.0576 149.201 32.3765 147.962 32.3765C146.859 32.3765 145.889 32.1043 145.051 31.5598C144.213 31.0153 143.558 30.2413 143.085 29.2378C142.62 28.2344 142.383 27.0326 142.376 25.6324V14.2211H146.952V24.7456C146.959 25.8035 147.221 26.6398 147.736 27.2543C148.252 27.8688 148.943 28.176 149.81 28.176C150.361 28.176 150.877 28.0399 151.356 27.7677C151.836 27.4876 152.223 27.0754 152.517 26.5309C152.817 25.9863 152.964 25.3135 152.957 24.5123Z" fill="white"/>
<path d="M161.107 32.1432V29.1795L169.185 18.3166V18.1882H161.387V14.2211H174.696V17.4531L167.112 28.0477V28.176H174.975V32.1432H161.107Z" fill="white"/> -->
<path d="M138.757 29.6947C138.757 31.3091 137.552 32.6178 136.066 32.6178C134.58 32.6178 133.375 31.3091 133.375 29.6947C133.375 28.0802 134.58 26.7715 136.066 26.7715C137.552 26.7715 138.757 28.0802 138.757 29.6947Z" fill="white"/>
<path fill-rule="evenodd" clip-rule="evenodd" d="M134.899 28.2639C135.234 27.9018 135.654 27.7028 135.969 27.5586C136.086 27.505 136.223 27.5624 136.275 27.6883C136.328 27.8141 136.275 27.9602 136.158 28.0123C135.882 28.1341 135.514 28.3039 135.224 28.6182C134.902 28.9668 134.692 29.4266 134.593 29.9249C134.567 30.0599 134.452 30.1563 134.326 30.1381C134.2 30.1198 134.111 29.9937 134.136 29.8585C134.256 29.2219 134.529 28.6641 134.899 28.2639Z" fill="white"/>
<g clip-path="url(#clip0_562_118)">
<path d="M32.9245 8.97056C34.2789 10.4481 35.0398 12.4521 35.0398 14.5417C35.0398 16.6313 34.2789 18.6353 32.9245 20.1128C31.6596 21.4928 30.0332 22.2556 28.3755 22.4013L28.3755 22.8641L28.9961 23.5412V32.1122H26.6391V23.5412L27.2598 22.8641L27.2598 22.4013C25.5421 22.2533 23.9292 21.4419 22.7107 20.1128C21.3563 18.6353 20.5954 16.6313 20.5954 14.5417C20.5954 12.4521 21.3563 10.4481 22.7107 8.97056C24.0652 7.493 25.9022 6.66292 27.8176 6.66291C29.7331 6.66292 31.5701 7.493 32.9245 8.97056ZM31.3532 10.6848C29.389 8.54201 26.2463 8.54201 24.2821 10.6848C22.3179 12.8275 22.3179 16.2559 24.2821 18.3987C26.2463 20.5414 29.389 20.5414 31.3532 18.3987C33.3173 16.2559 33.3173 12.8275 31.3532 10.6848Z" fill="#FEDA00"/>
</g>
<defs>
<clipPath id="clip0_562_118">
<rect width="26.6667" height="29.0909" fill="white" transform="translate(14.762 4.15625)"/>
</clipPath>
</defs>
</svg>
