<svg width="180" height="40" viewBox="0 0 180 40" fill="none" xmlns="http://www.w3.org/2000/svg">
<path d="M2.0769 32.1431V8.24699H17.8987V12.4125H7.12916V18.1065H16.8486V22.272H7.12916V32.1431H2.0769Z" fill="white"/>
<path d="M21.2037 32.1431V14.221H26.1743V32.1431H21.2037ZM23.7007 11.9108C22.9617 11.9108 22.3277 11.6657 21.7988 11.1757C21.2776 10.6778 21.017 10.0828 21.017 9.39046C21.017 8.70594 21.2776 8.11865 21.7988 7.62859C22.3277 7.13075 22.9617 6.88184 23.7007 6.88184C24.4396 6.88184 25.0697 7.13075 25.5909 7.62859C26.1198 8.11865 26.3843 8.70594 26.3843 9.39046C26.3843 10.0828 26.1198 10.6778 25.5909 11.1757C25.0697 11.6657 24.4396 11.9108 23.7007 11.9108Z" fill="white"/>
<path d="M35.1266 21.7819V32.1431H30.156V14.221H34.8932V17.3831H35.1032C35.4999 16.3407 36.165 15.5162 37.0985 14.9094C38.0319 14.2949 39.1637 13.9877 40.4939 13.9877C41.7384 13.9877 42.8236 14.2599 43.7492 14.8044C44.6749 15.3489 45.3944 16.1268 45.9078 17.138C46.4212 18.1415 46.6779 19.3394 46.6779 20.7318V32.1431H41.7073V21.6185C41.7151 20.5218 41.4351 19.6661 40.8672 19.0516C40.2994 18.4293 39.5176 18.1181 38.522 18.1181C37.853 18.1181 37.2618 18.262 36.7484 18.5499C36.2428 18.8377 35.8461 19.2577 35.5583 19.81C35.2783 20.3545 35.1343 21.0118 35.1266 21.7819Z" fill="white"/>
<path d="M57.1995 32.4348C55.8383 32.4348 54.6054 32.0848 53.5008 31.3847C52.404 30.6768 51.5328 29.6384 50.8872 28.2693C50.2493 26.8925 49.9304 25.2045 49.9304 23.2054C49.9304 21.1518 50.261 19.4444 50.9222 18.0831C51.5833 16.7141 52.4623 15.6912 53.5591 15.0144C54.6637 14.3299 55.8733 13.9877 57.1879 13.9877C58.1913 13.9877 59.0275 14.1588 59.6965 14.5011C60.3732 14.8355 60.9178 15.2556 61.33 15.7612C61.7501 16.259 62.069 16.7491 62.2868 17.2314H62.4385V8.24699H67.3974V32.1431H62.4968V29.2728H62.2868C62.0534 29.7706 61.7229 30.2645 61.295 30.7546C60.875 31.2369 60.3266 31.6375 59.6498 31.9564C58.9809 32.2753 58.1641 32.4348 57.1995 32.4348ZM58.7747 28.4793C59.5759 28.4793 60.2527 28.2615 60.805 27.8259C61.365 27.3825 61.7929 26.7641 62.0884 25.9707C62.3918 25.1773 62.5435 24.2477 62.5435 23.1821C62.5435 22.1164 62.3957 21.1907 62.1001 20.4051C61.8045 19.6194 61.3767 19.0127 60.8166 18.5849C60.2566 18.157 59.5759 17.9431 58.7747 17.9431C57.958 17.9431 57.2696 18.1648 56.7095 18.6082C56.1494 19.0516 55.7255 19.6661 55.4377 20.4517C55.1499 21.2374 55.006 22.1475 55.006 23.1821C55.006 24.2244 55.1499 25.1462 55.4377 25.9474C55.7333 26.7408 56.1572 27.3631 56.7095 27.8143C57.2696 28.2577 57.958 28.4793 58.7747 28.4793Z" fill="white"/>
<path d="M79.6517 32.4931C77.8082 32.4931 76.2213 32.1198 74.8912 31.373C73.5688 30.6185 72.5498 29.5528 71.8342 28.176C71.1185 26.7914 70.7607 25.154 70.7607 23.2637C70.7607 21.4202 71.1185 19.8022 71.8342 18.4098C72.5498 17.0175 73.5571 15.9323 74.8562 15.1545C76.163 14.3766 77.6954 13.9877 79.4534 13.9877C80.6357 13.9877 81.7364 14.1782 82.7554 14.5594C83.7822 14.9328 84.6768 15.4967 85.4391 16.2513C86.2092 17.0058 86.8081 17.9548 87.2359 19.0983C87.6638 20.2339 87.8777 21.5641 87.8777 23.0887V24.4539H72.7443V21.3735H83.1988C83.1988 20.6579 83.0432 20.0239 82.7321 19.4716C82.4209 18.9193 81.9892 18.4876 81.4369 18.1765C80.8924 17.8576 80.2585 17.6981 79.5351 17.6981C78.7805 17.6981 78.1116 17.8731 77.5282 18.2232C76.9525 18.5654 76.5014 19.0282 76.1747 19.6116C75.848 20.1873 75.6807 20.829 75.6729 21.5369V24.4655C75.6729 25.3523 75.8363 26.1185 76.163 26.7641C76.4975 27.4098 76.9681 27.9076 77.5748 28.2576C78.1816 28.6077 78.9011 28.7827 79.7334 28.7827C80.2857 28.7827 80.7913 28.7049 81.2503 28.5493C81.7092 28.3938 82.102 28.1604 82.4287 27.8493C82.7554 27.5381 83.0043 27.157 83.1755 26.7058L87.7727 27.0092C87.5393 28.1137 87.0609 29.0783 86.3375 29.9028C85.6219 30.7196 84.6962 31.3575 83.5605 31.8164C82.4326 32.2676 81.1297 32.4931 79.6517 32.4931Z" fill="white"/>
<path d="M97.7255 32.4348C96.3642 32.4348 95.1313 32.0848 94.0267 31.3847C92.9299 30.6768 92.0587 29.6384 91.4131 28.2693C90.7752 26.8925 90.4563 25.2045 90.4563 23.2054C90.4563 21.1518 90.7869 19.4444 91.4481 18.0831C92.1093 16.7141 92.9883 15.6912 94.0851 15.0144C95.1896 14.3299 96.3992 13.9877 97.7138 13.9877C98.7173 13.9877 99.5535 14.1588 100.222 14.5011C100.899 14.8355 101.444 15.2556 101.856 15.7612C102.276 16.259 102.595 16.7491 102.813 17.2314H102.964V8.24699H107.923V32.1431H103.023V29.2728H102.813C102.579 29.7706 102.249 30.2645 101.821 30.7546C101.401 31.2369 100.853 31.6375 100.176 31.9564C99.5068 32.2753 98.6901 32.4348 97.7255 32.4348ZM99.3007 28.4793C100.102 28.4793 100.779 28.2615 101.331 27.8259C101.891 27.3825 102.319 26.7641 102.614 25.9707C102.918 25.1773 103.069 24.2477 103.069 23.1821C103.069 22.1164 102.922 21.1907 102.626 20.4051C102.33 19.6194 101.903 19.0127 101.343 18.5849C100.783 18.157 100.102 17.9431 99.3007 17.9431C98.4839 17.9431 97.7955 18.1648 97.2354 18.6082C96.6754 19.0516 96.2514 19.6661 95.9636 20.4517C95.6758 21.2374 95.5319 22.1475 95.5319 23.1821C95.5319 24.2244 95.6758 25.1462 95.9636 25.9474C96.2592 26.7408 96.6832 27.3631 97.2354 27.8143C97.7955 28.2577 98.4839 28.4793 99.3007 28.4793Z" fill="white"/>
<path d="M123.503 24.5122V14.221H128.474V32.1431H123.701V28.8877H123.515C123.11 29.9378 122.437 30.7818 121.496 31.4197C120.563 32.0575 119.423 32.3765 118.077 32.3765C116.88 32.3765 115.826 32.1042 114.915 31.5597C114.005 31.0152 113.294 30.2412 112.78 29.2378C112.275 28.2343 112.018 27.0325 112.01 25.6323V14.221H116.981V24.7456C116.988 25.8035 117.272 26.6397 117.832 27.2542C118.392 27.8687 119.143 28.176 120.084 28.176C120.683 28.176 121.243 28.0398 121.765 27.7676C122.286 27.4876 122.706 27.0753 123.025 26.5308C123.351 25.9863 123.511 25.3134 123.503 24.5122Z" fill="white"/>
<path d="M135.355 32.4465C134.585 32.4465 133.924 32.1742 133.371 31.6297C132.827 31.0774 132.555 30.4162 132.555 29.6461C132.555 28.8838 132.827 28.2304 133.371 27.6859C133.924 27.1414 134.585 26.8692 135.355 26.8692C136.102 26.8692 136.755 27.1414 137.315 27.6859C137.875 28.2304 138.155 28.8838 138.155 29.6461C138.155 30.1595 138.023 30.6301 137.758 31.058C137.502 31.478 137.163 31.8164 136.743 32.0731C136.323 32.322 135.86 32.4465 135.355 32.4465Z" fill="white"/>
<path d="M153.729 24.5122V14.221H158.7V32.1431H153.927V28.8877H153.741C153.336 29.9378 152.663 30.7818 151.722 31.4197C150.789 32.0575 149.649 32.3765 148.303 32.3765C147.106 32.3765 146.052 32.1042 145.141 31.5597C144.231 31.0152 143.52 30.2412 143.006 29.2378C142.501 28.2343 142.244 27.0325 142.236 25.6323V14.221H147.207V24.7456C147.214 25.8035 147.498 26.6397 148.058 27.2542C148.618 27.8687 149.369 28.176 150.31 28.176C150.909 28.176 151.469 28.0398 151.991 27.7676C152.512 27.4876 152.932 27.0753 153.251 26.5308C153.577 25.9863 153.737 25.3134 153.729 24.5122Z" fill="white"/>
<path d="M162.582 32.1431V29.1794L171.357 18.3165V18.1881H162.886V14.221H177.342V17.4531L169.105 28.0476V28.176H177.646V32.1431H162.582Z" fill="white"/>
<path d="M28.1024 7.7868C28.1024 10.2245 26.1263 12.2006 23.6887 12.2006C21.251 12.2006 19.2749 10.2245 19.2749 7.7868C19.2749 5.34915 21.251 3.37305 23.6887 3.37305C26.1263 3.37305 28.1024 5.34915 28.1024 7.7868Z" fill="#FCD800"/>
<path d="M21.1973 14.2129H26.1804V32.1426H21.1973V14.2129Z" fill="white"/>
<path fill-rule="evenodd" clip-rule="evenodd" d="M21.5081 5.52096C22.0697 4.96162 22.7742 4.65416 23.3039 4.43137C23.5005 4.34867 23.7298 4.43724 23.8175 4.63169V4.63169C23.9052 4.82614 23.8174 5.05186 23.6198 5.13223C23.157 5.32048 22.5406 5.58276 22.0532 6.06821C21.5125 6.60679 21.1609 7.31718 20.9954 8.08688C20.9505 8.29541 20.7579 8.44443 20.5465 8.4162V8.4162C20.3351 8.38797 20.1852 8.19324 20.228 7.9843C20.4298 7.0009 20.8875 6.13913 21.5081 5.52096Z" fill="white"/>
<path d="M138.305 29.6947C138.305 31.3091 136.996 32.6178 135.382 32.6178C133.767 32.6178 132.459 31.3091 132.459 29.6947C132.459 28.0802 133.767 26.7715 135.382 26.7715C136.996 26.7715 138.305 28.0802 138.305 29.6947Z" fill="white"/>
<path fill-rule="evenodd" clip-rule="evenodd" d="M134.115 28.2639C134.478 27.9018 134.934 27.7028 135.277 27.5586C135.404 27.505 135.553 27.5624 135.609 27.6883V27.6883C135.666 27.8141 135.609 27.9602 135.481 28.0123C135.182 28.1341 134.783 28.3039 134.467 28.6182C134.117 28.9668 133.89 29.4266 133.783 29.9249C133.754 30.0599 133.629 30.1563 133.492 30.1381V30.1381C133.355 30.1198 133.258 29.9937 133.286 29.8585C133.416 29.2219 133.713 28.6641 134.115 28.2639Z" fill="white"/>
</svg>
